<svg width="18" height="14" viewBox="0 0 18 14" fill="none" xmlns="http://www.w3.org/2000/svg">
<path d="M7.66816 0V3.68421C7.66816 4.80312 7.46637 5.99708 7.06278 7.26608C6.67265 8.52144 6.09417 9.74269 5.32735 10.9298C4.57399 12.1033 3.65919 13.1267 2.58296 14L0 11.8713C0.847534 10.6433 1.58072 9.36745 2.19955 8.04386C2.83184 6.70663 3.14798 5.2807 3.14798 3.76608V0H7.66816ZM18 0V3.68421C18 4.80312 17.7982 5.99708 17.3946 7.26608C17.0045 8.52144 16.426 9.74269 15.6592 10.9298C14.9058 12.1033 13.991 13.1267 12.9148 14L10.3318 11.8713C11.1794 10.6433 11.9126 9.36745 12.5314 8.04386C13.1637 6.70663 13.4798 5.2807 13.4798 3.76608V0H18Z" fill="white"/>
</svg>
