<svg width="18" height="14" viewBox="0 0 18 14" fill="none" xmlns="http://www.w3.org/2000/svg">
<path d="M0 14V10.3158C0 9.19688 0.195067 8.00975 0.585202 6.75438C0.988789 5.48538 1.56726 4.26413 2.32063 3.09064C3.08744 1.90351 4.00897 0.873293 5.0852 0L7.66816 2.12865C6.82063 3.35673 6.08072 4.63938 5.44843 5.97661C4.8296 7.30019 4.52018 8.7193 4.52018 10.2339V14H0ZM10.3318 14V10.3158C10.3318 9.19688 10.5269 8.00975 10.917 6.75438C11.3206 5.48538 11.8991 4.26413 12.6525 3.09064C13.4193 1.90351 14.3408 0.873293 15.417 0L18 2.12865C17.1525 3.35673 16.4126 4.63938 15.7803 5.97661C15.1614 7.30019 14.852 8.7193 14.852 10.2339V14H10.3318Z" fill="white"/>
</svg>
