<svg width="32" height="32" viewBox="0 0 32 32" fill="none" xmlns="http://www.w3.org/2000/svg">
<path d="M28.4233 0H1.7054C0.852699 0 0.0710582 0.704514 0.0710582 1.62038V4.57934C0.0710582 5.49521 0.852699 6.27017 1.7054 6.27017H28.4233C29.3471 6.27017 30.0576 5.49521 30.1287 4.57934V1.69083C30.1287 0.704514 29.3471 0 28.4233 0ZM28.4233 16.6265H1.7054C1.27905 16.6265 0.852699 16.8379 0.497408 17.1197C0.213175 17.4015 0 17.8242 0 18.3174V21.2763C0 22.1922 0.781641 22.9672 1.63434 22.9672H28.3522C29.276 22.9672 29.9866 22.2626 30.0576 21.2763V18.3174C30.1287 17.331 29.3471 16.6265 28.4233 16.6265ZM16.7697 24.8693H1.7054C1.27905 24.8693 0.852699 25.0102 0.568466 25.3625C0.284233 25.6443 0.0710582 26.067 0.0710582 26.5602V29.5191C0.0710582 30.435 0.852699 31.21 1.7054 31.21H16.6987C17.6224 31.21 18.333 30.435 18.333 29.5191V26.4897C18.4041 25.6443 17.6935 24.8693 16.7697 24.8693ZM30.1287 8.31326H1.7054C1.27905 8.31326 0.852699 8.45416 0.568466 8.80642C0.284233 9.08823 0.0710582 9.51094 0.0710582 10.0041V12.9631C0.0710582 13.8789 0.852699 14.6539 1.7054 14.6539H30.0576C30.9814 14.6539 31.692 13.8789 31.692 12.9631V10.0041C31.763 9.01778 31.0524 8.31326 30.1287 8.31326Z" fill="#00C3F7"/>
</svg>
